<?xml version="1.0" encoding="UTF-8" standalone="no"?>
<!DOCTYPE svg PUBLIC "-//W3C//DTD SVG 1.1//EN"
 "http://www.w3.org/Graphics/SVG/1.1/DTD/svg11.dtd">
<!-- Generated by graphviz version 2.44.0 (20200518.1210)
 -->
<!-- Pages: 1 -->
<svg width="536pt" height="610pt"
 viewBox="0.00 0.00 536.25 610.00" xmlns="http://www.w3.org/2000/svg" xmlns:xlink="http://www.w3.org/1999/xlink">
<g id="graph0" class="graph" transform="scale(1 1) rotate(0) translate(4 606)">
<polygon fill="white" stroke="transparent" points="-4,4 -4,-606 532.25,-606 532.25,4 -4,4"/>
<!-- DAO_L2_Bridge -->
<g id="node1" class="node">
<title>DAO_L2_Bridge</title>
<path fill="none" stroke="black" d="M188.3,-602C188.3,-602 123.7,-602 123.7,-602 117.7,-602 111.7,-596 111.7,-590 111.7,-590 111.7,-578 111.7,-578 111.7,-572 117.7,-566 123.7,-566 123.7,-566 188.3,-566 188.3,-566 194.3,-566 200.3,-572 200.3,-578 200.3,-578 200.3,-590 200.3,-590 200.3,-596 194.3,-602 188.3,-602"/>
<text text-anchor="middle" x="156" y="-581" font-family="arial" font-size="10.00">DAO_L2_Bridge</text>
</g>
<!-- Forwarder -->
<g id="node2" class="node">
<title>Forwarder</title>
<path fill="none" stroke="black" d="M246.55,-313C246.55,-313 209.45,-313 209.45,-313 203.45,-313 197.45,-307 197.45,-301 197.45,-301 197.45,-289 197.45,-289 197.45,-283 203.45,-277 209.45,-277 209.45,-277 246.55,-277 246.55,-277 252.55,-277 258.55,-283 258.55,-289 258.55,-289 258.55,-301 258.55,-301 258.55,-307 252.55,-313 246.55,-313"/>
<text text-anchor="middle" x="228" y="-292" font-family="arial" font-size="10.00">Forwarder</text>
</g>
<!-- DAO_L2_Bridge&#45;&gt;Forwarder -->
<g id="edge1" class="edge">
<title>DAO_L2_Bridge&#45;&gt;Forwarder</title>
<path fill="none" stroke="green" stroke-dasharray="5,2" d="M139.56,-565.8C110.68,-533.42 56.49,-461.46 85.09,-404 106.37,-361.25 153.54,-330.92 187.89,-313.5"/>
<polygon fill="green" stroke="green" points="189.77,-316.48 197.2,-308.93 186.68,-310.19 189.77,-316.48"/>
<text text-anchor="middle" x="150.46" y="-419" font-family="arial" font-size="10.00" fill="green">Owner of;</text>
<text text-anchor="middle" x="150.46" y="-407" font-family="arial" font-size="10.00" fill="green">Set which contract can call it;</text>
</g>
<!-- DAO_L2_Bridge&#45;&gt;Forwarder -->
<!-- Collection_Manager -->
<g id="node3" class="node">
<title>Collection_Manager</title>
<path fill="none" stroke="black" d="M382.4,-386C382.4,-386 301.6,-386 301.6,-386 295.6,-386 289.6,-380 289.6,-374 289.6,-374 289.6,-362 289.6,-362 289.6,-356 295.6,-350 301.6,-350 301.6,-350 382.4,-350 382.4,-350 388.4,-350 394.4,-356 394.4,-362 394.4,-362 394.4,-374 394.4,-374 394.4,-380 388.4,-386 382.4,-386"/>
<text text-anchor="middle" x="342" y="-365" font-family="arial" font-size="10.00">Collection_Manager</text>
</g>
<!-- DAO_L2_Bridge&#45;&gt;Collection_Manager -->
<g id="edge2" class="edge">
<title>DAO_L2_Bridge&#45;&gt;Collection_Manager</title>
<path fill="none" stroke="green" stroke-dasharray="5,2" d="M200.45,-583.22C263.21,-582.47 372.96,-576.92 398,-548 414.31,-529.16 432.12,-476.09 392,-404 389.74,-399.93 386.78,-396.23 383.43,-392.89"/>
<polygon fill="green" stroke="green" points="385.45,-390.01 375.59,-386.14 380.89,-395.32 385.45,-390.01"/>
<text text-anchor="middle" x="472.12" y="-485" font-family="arial" font-size="10.00" fill="green">Owner of;</text>
<text text-anchor="middle" x="472.12" y="-473" font-family="arial" font-size="10.00" fill="green"> Set protocol parameters:</text>
<text text-anchor="middle" x="472.12" y="-461" font-family="arial" font-size="10.00" fill="green">Committee address;</text>
<text text-anchor="middle" x="472.12" y="-449" font-family="arial" font-size="10.00" fill="green">Price per item;</text>
</g>
<!-- Committee -->
<g id="node4" class="node">
<title>Committee</title>
<path fill="none" stroke="black" d="M369.33,-488C369.33,-488 328.67,-488 328.67,-488 322.67,-488 316.67,-482 316.67,-476 316.67,-476 316.67,-464 316.67,-464 316.67,-458 322.67,-452 328.67,-452 328.67,-452 369.33,-452 369.33,-452 375.33,-452 381.33,-458 381.33,-464 381.33,-464 381.33,-476 381.33,-476 381.33,-482 375.33,-488 369.33,-488"/>
<text text-anchor="middle" x="349" y="-467" font-family="arial" font-size="10.00">Committee</text>
</g>
<!-- DAO_L2_Bridge&#45;&gt;Committee -->
<g id="edge3" class="edge">
<title>DAO_L2_Bridge&#45;&gt;Committee</title>
<path fill="none" stroke="green" stroke-dasharray="5,2" d="M195.45,-565.86C207.07,-560.47 219.7,-554.28 231,-548 260.76,-531.45 293.05,-510.13 316.32,-494.12"/>
<polygon fill="green" stroke="green" points="318.54,-496.84 324.77,-488.27 314.55,-491.09 318.54,-496.84"/>
<text text-anchor="middle" x="339.9" y="-533" font-family="arial" font-size="10.00" fill="green">Owner of;</text>
<text text-anchor="middle" x="339.9" y="-521" font-family="arial" font-size="10.00" fill="green"> Add/Remove members;</text>
</g>
<!-- Rarities -->
<g id="node5" class="node">
<title>Rarities</title>
<path fill="none" stroke="black" d="M141,-36C141,-36 111,-36 111,-36 105,-36 99,-30 99,-24 99,-24 99,-12 99,-12 99,-6 105,0 111,0 111,0 141,0 141,0 147,0 153,-6 153,-12 153,-12 153,-24 153,-24 153,-30 147,-36 141,-36"/>
<text text-anchor="middle" x="126" y="-15" font-family="arial" font-size="10.00">Rarities</text>
</g>
<!-- DAO_L2_Bridge&#45;&gt;Rarities -->
<g id="edge4" class="edge">
<title>DAO_L2_Bridge&#45;&gt;Rarities</title>
<path fill="none" stroke="green" stroke-dasharray="5,2" d="M121.2,-565.96C88.97,-547.46 46,-514.61 46,-471 46,-471 46,-471 46,-113 46,-83.36 69.36,-58.3 90.83,-41.53"/>
<polygon fill="green" stroke="green" points="92.98,-44.3 98.92,-35.52 88.8,-38.68 92.98,-44.3"/>
<text text-anchor="middle" x="91.56" y="-298" font-family="arial" font-size="10.00" fill="green">Owner of;</text>
<text text-anchor="middle" x="91.56" y="-286" font-family="arial" font-size="10.00" fill="green"> Add/Update rarities;</text>
</g>
<!-- DAO_L2_Bridge&#45;&gt;Rarities -->
<!-- Collection_Factory -->
<g id="node6" class="node">
<title>Collection_Factory</title>
<path fill="none" stroke="black" d="M327.29,-205C327.29,-205 252.71,-205 252.71,-205 246.71,-205 240.71,-199 240.71,-193 240.71,-193 240.71,-181 240.71,-181 240.71,-175 246.71,-169 252.71,-169 252.71,-169 327.29,-169 327.29,-169 333.29,-169 339.29,-175 339.29,-181 339.29,-181 339.29,-193 339.29,-193 339.29,-199 333.29,-205 327.29,-205"/>
<text text-anchor="middle" x="290" y="-184" font-family="arial" font-size="10.00">Collection_Factory</text>
</g>
<!-- Forwarder&#45;&gt;Collection_Factory -->
<g id="edge5" class="edge">
<title>Forwarder&#45;&gt;Collection_Factory</title>
<path fill="none" stroke="green" stroke-dasharray="5,2" d="M197.31,-285.84C183.75,-280.55 169.11,-272.11 161.18,-259 152.9,-245.31 151.46,-235.71 161.18,-223 161.48,-222.61 196.89,-213.01 230.5,-203.96"/>
<polygon fill="green" stroke="green" points="231.62,-207.28 240.37,-201.3 229.8,-200.52 231.62,-207.28"/>
<text text-anchor="middle" x="240.91" y="-250" font-family="arial" font-size="10.00" fill="green">Owner of;</text>
<text text-anchor="middle" x="240.91" y="-238" font-family="arial" font-size="10.00" fill="green"> The only address allowed to create</text>
<text text-anchor="middle" x="240.91" y="-226" font-family="arial" font-size="10.00" fill="green"> collections</text>
</g>
<!-- Forwarder&#45;&gt;Collection_Factory -->
<g id="edge10" class="edge">
<title>Forwarder&#45;&gt;Collection_Factory</title>
<path fill="none" stroke="orange" d="M258.62,-289.37C276.75,-284.91 298.21,-276.16 310,-259 319.06,-245.81 315.43,-238.05 310,-223 308.85,-219.81 307.27,-216.7 305.47,-213.74"/>
<polygon fill="orange" stroke="orange" points="308.24,-211.59 299.68,-205.36 302.49,-215.57 308.24,-211.59"/>
</g>
<!-- Forwarder&#45;&gt;Collection_Factory -->
<!-- Collection -->
<g id="node7" class="node">
<title>Collection</title>
<path fill="none" stroke="black" d="M143.89,-132C143.89,-132 108.11,-132 108.11,-132 102.11,-132 96.11,-126 96.11,-120 96.11,-120 96.11,-108 96.11,-108 96.11,-102 102.11,-96 108.11,-96 108.11,-96 143.89,-96 143.89,-96 149.89,-96 155.89,-102 155.89,-108 155.89,-108 155.89,-120 155.89,-120 155.89,-126 149.89,-132 143.89,-132"/>
<text text-anchor="middle" x="126" y="-111" font-family="arial" font-size="10.00">Collection</text>
</g>
<!-- Forwarder&#45;&gt;Collection -->
<g id="edge6" class="edge">
<title>Forwarder&#45;&gt;Collection</title>
<path fill="none" stroke="green" stroke-dasharray="5,2" d="M197.35,-287.41C181.15,-282.35 162.32,-273.64 151,-259 124.9,-225.24 122.31,-173.69 123.59,-142.3"/>
<polygon fill="green" stroke="green" points="127.1,-142.28 124.18,-132.09 120.11,-141.88 127.1,-142.28"/>
<text text-anchor="middle" x="164.95" y="-196" font-family="arial" font-size="10.00" fill="green">Owner of;</text>
<text text-anchor="middle" x="164.95" y="-184" font-family="arial" font-size="10.00" fill="green"> Approve/Reject;</text>
<text text-anchor="middle" x="164.95" y="-172" font-family="arial" font-size="10.00" fill="green">Rescue items;</text>
</g>
<!-- Forwarder&#45;&gt;Collection -->
<g id="edge14" class="edge">
<title>Forwarder&#45;&gt;Collection</title>
<path fill="none" stroke="blue" d="M197.16,-292.09C172.5,-288.97 139.51,-280.73 121,-259 93.35,-226.53 100.76,-173.41 111.46,-141.57"/>
<polygon fill="blue" stroke="blue" points="114.8,-142.63 115,-132.03 108.24,-140.19 114.8,-142.63"/>
</g>
<!-- Forwarder&#45;&gt;Collection -->
<!-- Collection_Manager&#45;&gt;Forwarder -->
<g id="edge9" class="edge">
<title>Collection_Manager&#45;&gt;Forwarder</title>
<path fill="none" stroke="orange" d="M302.98,-349.99C286.02,-340.67 266.92,-328.97 251.99,-318.86"/>
<polygon fill="orange" stroke="orange" points="253.94,-315.95 243.74,-313.11 249.95,-321.7 253.94,-315.95"/>
</g>
<!-- Collection_Manager&#45;&gt;Forwarder -->
<g id="edge13" class="edge">
<title>Collection_Manager&#45;&gt;Forwarder</title>
<path fill="none" stroke="blue" d="M314.69,-349.99C299.58,-340.58 280.59,-328.76 264.25,-318.57"/>
<polygon fill="blue" stroke="blue" points="265.82,-315.43 255.48,-313.11 262.12,-321.37 265.82,-315.43"/>
</g>
<!-- Collection_Manager&#45;&gt;Forwarder -->
<!-- Collection_Manager&#45;&gt;Rarities -->
<g id="edge15" class="edge">
<title>Collection_Manager&#45;&gt;Rarities</title>
<path fill="none" stroke="pink" stroke-dasharray="5,2" d="M355.44,-349.99C364.94,-336.24 376,-315.95 376,-296 376,-296 376,-296 376,-113 376,-68.12 233.08,-37.37 163.36,-25.04"/>
<polygon fill="pink" stroke="pink" points="163.68,-21.54 153.23,-23.29 162.49,-28.44 163.68,-21.54"/>
<text text-anchor="middle" x="422.96" y="-190" font-family="arial" font-size="10.00" fill="pink"> &#160;&#160;Get rarity info.</text>
<text text-anchor="middle" x="422.96" y="-178" font-family="arial" font-size="10.00" fill="pink"> &#160;&#160;E.g: price to deploy</text>
</g>
<!-- Collection_Manager&#45;&gt;Rarities -->
<!-- Committee&#45;&gt;Collection_Manager -->
<g id="edge12" class="edge">
<title>Committee&#45;&gt;Collection_Manager</title>
<path fill="none" stroke="blue" d="M364.28,-451.95C374.07,-438.87 383.77,-420.35 377,-404 375.53,-400.46 373.51,-397.09 371.18,-393.93"/>
<polygon fill="blue" stroke="blue" points="373.62,-391.41 364.43,-386.14 368.33,-395.99 373.62,-391.41"/>
</g>
<!-- Collection_Factory&#45;&gt;Collection -->
<g id="edge11" class="edge">
<title>Collection_Factory&#45;&gt;Collection</title>
<path fill="none" stroke="orange" d="M250.72,-168.99C224.92,-157.83 191.3,-143.27 165.47,-132.09"/>
<polygon fill="orange" stroke="orange" points="166.55,-128.74 155.98,-127.98 163.77,-135.16 166.55,-128.74"/>
</g>
<!-- Collection&#45;&gt;Rarities -->
<g id="edge16" class="edge">
<title>Collection&#45;&gt;Rarities</title>
<path fill="none" stroke="pink" stroke-dasharray="5,2" d="M126,-95.76C126,-81.98 126,-62.4 126,-46.47"/>
<polygon fill="pink" stroke="pink" points="129.5,-46.13 126,-36.13 122.5,-46.13 129.5,-46.13"/>
<text text-anchor="middle" x="162.95" y="-69" font-family="arial" font-size="10.00" fill="pink"> &#160;&#160;Get rarity info.</text>
<text text-anchor="middle" x="162.95" y="-57" font-family="arial" font-size="10.00" fill="pink"> E.g: max supply</text>
</g>
<!-- Commitee_Member -->
<g id="node8" class="node">
<title>Commitee_Member</title>
<text text-anchor="middle" x="450" y="-580.4" font-family="arial" font-size="12.00">Commitee_Member</text>
</g>
<!-- Commitee_Member&#45;&gt;Committee -->
<g id="edge7" class="edge">
<title>Commitee_Member&#45;&gt;Committee</title>
<path fill="none" stroke="blue" d="M434.66,-565.99C417.83,-547.32 390.65,-517.18 371.42,-495.87"/>
<polygon fill="blue" stroke="blue" points="373.78,-493.25 364.48,-488.17 368.58,-497.94 373.78,-493.25"/>
<text text-anchor="middle" x="465.35" y="-539" font-family="arial" font-size="10.00" fill="blue"> &#160;&#160;Manage collections:</text>
<text text-anchor="middle" x="465.35" y="-527" font-family="arial" font-size="10.00" fill="blue">Approve/Reject;</text>
<text text-anchor="middle" x="465.35" y="-515" font-family="arial" font-size="10.00" fill="blue">Rescue items;</text>
</g>
<!-- User -->
<g id="node9" class="node">
<title>User</title>
<text text-anchor="middle" x="272" y="-466.4" font-family="arial" font-size="12.00">User</text>
</g>
<!-- User&#45;&gt;Collection_Manager -->
<g id="edge8" class="edge">
<title>User&#45;&gt;Collection_Manager</title>
<path fill="none" stroke="orange" d="M266.21,-451.89C262.59,-437.93 260.13,-418.25 269.1,-404 272.26,-398.98 276.36,-394.66 281.02,-390.95"/>
<polygon fill="orange" stroke="orange" points="283.03,-393.81 289.29,-385.26 279.07,-388.04 283.03,-393.81"/>
<text text-anchor="middle" x="320.95" y="-419" font-family="arial" font-size="10.00" fill="orange">Create collection</text>
<text text-anchor="middle" x="320.95" y="-407" font-family="arial" font-size="10.00" fill="orange"> by paying Matic MANA</text>
</g>
</g>
</svg>
