<?xml version="1.0" encoding="UTF-8" standalone="no"?>
<!DOCTYPE svg PUBLIC "-//W3C//DTD SVG 1.1//EN"
 "http://www.w3.org/Graphics/SVG/1.1/DTD/svg11.dtd">
<!-- Generated by graphviz version 2.44.0 (20200518.1210)
 -->
<!-- Pages: 1 -->
<svg width="605pt" height="610pt"
 viewBox="0.00 0.00 605.00 610.00" xmlns="http://www.w3.org/2000/svg" xmlns:xlink="http://www.w3.org/1999/xlink">
<g id="graph0" class="graph" transform="scale(1 1) rotate(0) translate(4 606)">
<polygon fill="white" stroke="transparent" points="-4,4 -4,-606 601,-606 601,4 -4,4"/>
<!-- DAO_L2_Bridge -->
<g id="node1" class="node">
<title>DAO_L2_Bridge</title>
<path fill="none" stroke="black" d="M188.3,-602C188.3,-602 123.7,-602 123.7,-602 117.7,-602 111.7,-596 111.7,-590 111.7,-590 111.7,-578 111.7,-578 111.7,-572 117.7,-566 123.7,-566 123.7,-566 188.3,-566 188.3,-566 194.3,-566 200.3,-572 200.3,-578 200.3,-578 200.3,-590 200.3,-590 200.3,-596 194.3,-602 188.3,-602"/>
<text text-anchor="middle" x="156" y="-581" font-family="arial" font-size="10.00">DAO_L2_Bridge</text>
</g>
<!-- Forwarder -->
<g id="node2" class="node">
<title>Forwarder</title>
<path fill="none" stroke="black" d="M313.55,-313C313.55,-313 276.45,-313 276.45,-313 270.45,-313 264.45,-307 264.45,-301 264.45,-301 264.45,-289 264.45,-289 264.45,-283 270.45,-277 276.45,-277 276.45,-277 313.55,-277 313.55,-277 319.55,-277 325.55,-283 325.55,-289 325.55,-289 325.55,-301 325.55,-301 325.55,-307 319.55,-313 313.55,-313"/>
<text text-anchor="middle" x="295" y="-292" font-family="arial" font-size="10.00">Forwarder</text>
</g>
<!-- DAO_L2_Bridge&#45;&gt;Forwarder -->
<g id="edge1" class="edge">
<title>DAO_L2_Bridge&#45;&gt;Forwarder</title>
<path fill="none" stroke="green" stroke-dasharray="5,2" d="M139.33,-565.94C109.4,-533.17 52.6,-459.73 85.09,-404 120.81,-342.72 204.18,-314.93 254.44,-303.36"/>
<polygon fill="green" stroke="green" points="255.31,-306.76 264.33,-301.2 253.81,-299.92 255.31,-306.76"/>
<text text-anchor="middle" x="150.46" y="-419" font-family="arial" font-size="10.00" fill="green">Owner of;</text>
<text text-anchor="middle" x="150.46" y="-407" font-family="arial" font-size="10.00" fill="green">Set which contract can call it;</text>
</g>
<!-- DAO_L2_Bridge&#45;&gt;Forwarder -->
<!-- Collection_Manager -->
<g id="node3" class="node">
<title>Collection_Manager</title>
<path fill="none" stroke="black" d="M407.4,-386C407.4,-386 326.6,-386 326.6,-386 320.6,-386 314.6,-380 314.6,-374 314.6,-374 314.6,-362 314.6,-362 314.6,-356 320.6,-350 326.6,-350 326.6,-350 407.4,-350 407.4,-350 413.4,-350 419.4,-356 419.4,-362 419.4,-362 419.4,-374 419.4,-374 419.4,-380 413.4,-386 407.4,-386"/>
<text text-anchor="middle" x="367" y="-365" font-family="arial" font-size="10.00">Collection_Manager</text>
</g>
<!-- DAO_L2_Bridge&#45;&gt;Collection_Manager -->
<g id="edge2" class="edge">
<title>DAO_L2_Bridge&#45;&gt;Collection_Manager</title>
<path fill="none" stroke="green" stroke-dasharray="5,2" d="M200.45,-583.22C263.21,-582.47 372.96,-576.92 398,-548 411.06,-532.91 419.9,-487.58 391,-404 389.92,-400.87 388.47,-397.75 386.83,-394.75"/>
<polygon fill="green" stroke="green" points="389.72,-392.78 381.45,-386.16 383.79,-396.49 389.72,-392.78"/>
<text text-anchor="middle" x="466.12" y="-485" font-family="arial" font-size="10.00" fill="green">Owner of;</text>
<text text-anchor="middle" x="466.12" y="-473" font-family="arial" font-size="10.00" fill="green"> Set protocol parameters:</text>
<text text-anchor="middle" x="466.12" y="-461" font-family="arial" font-size="10.00" fill="green">Committee address;</text>
<text text-anchor="middle" x="466.12" y="-449" font-family="arial" font-size="10.00" fill="green">Price per item;</text>
</g>
<!-- Committee -->
<g id="node4" class="node">
<title>Committee</title>
<path fill="none" stroke="black" d="M369.33,-488C369.33,-488 328.67,-488 328.67,-488 322.67,-488 316.67,-482 316.67,-476 316.67,-476 316.67,-464 316.67,-464 316.67,-458 322.67,-452 328.67,-452 328.67,-452 369.33,-452 369.33,-452 375.33,-452 381.33,-458 381.33,-464 381.33,-464 381.33,-476 381.33,-476 381.33,-482 375.33,-488 369.33,-488"/>
<text text-anchor="middle" x="349" y="-467" font-family="arial" font-size="10.00">Committee</text>
</g>
<!-- DAO_L2_Bridge&#45;&gt;Committee -->
<g id="edge3" class="edge">
<title>DAO_L2_Bridge&#45;&gt;Committee</title>
<path fill="none" stroke="green" stroke-dasharray="5,2" d="M195.45,-565.86C207.07,-560.47 219.7,-554.28 231,-548 260.76,-531.45 293.05,-510.13 316.32,-494.12"/>
<polygon fill="green" stroke="green" points="318.54,-496.84 324.77,-488.27 314.55,-491.09 318.54,-496.84"/>
<text text-anchor="middle" x="339.9" y="-533" font-family="arial" font-size="10.00" fill="green">Owner of;</text>
<text text-anchor="middle" x="339.9" y="-521" font-family="arial" font-size="10.00" fill="green"> Add/Remove members;</text>
</g>
<!-- Rarities -->
<g id="node5" class="node">
<title>Rarities</title>
<path fill="none" stroke="black" d="M256,-36C256,-36 226,-36 226,-36 220,-36 214,-30 214,-24 214,-24 214,-12 214,-12 214,-6 220,0 226,0 226,0 256,0 256,0 262,0 268,-6 268,-12 268,-12 268,-24 268,-24 268,-30 262,-36 256,-36"/>
<text text-anchor="middle" x="241" y="-15" font-family="arial" font-size="10.00">Rarities</text>
</g>
<!-- DAO_L2_Bridge&#45;&gt;Rarities -->
<g id="edge4" class="edge">
<title>DAO_L2_Bridge&#45;&gt;Rarities</title>
<path fill="none" stroke="green" stroke-dasharray="5,2" d="M121.2,-565.96C88.97,-547.46 46,-514.61 46,-471 46,-471 46,-471 46,-113 46,-43.65 147.3,-25.44 203.88,-20.67"/>
<polygon fill="green" stroke="green" points="204.17,-24.16 213.89,-19.93 203.65,-17.18 204.17,-24.16"/>
<text text-anchor="middle" x="91.56" y="-298" font-family="arial" font-size="10.00" fill="green">Owner of;</text>
<text text-anchor="middle" x="91.56" y="-286" font-family="arial" font-size="10.00" fill="green"> Add/Update rarities;</text>
</g>
<!-- DAO_L2_Bridge&#45;&gt;Rarities -->
<!-- Collection_Factory -->
<g id="node6" class="node">
<title>Collection_Factory</title>
<path fill="none" stroke="black" d="M160.29,-205C160.29,-205 85.71,-205 85.71,-205 79.71,-205 73.71,-199 73.71,-193 73.71,-193 73.71,-181 73.71,-181 73.71,-175 79.71,-169 85.71,-169 85.71,-169 160.29,-169 160.29,-169 166.29,-169 172.29,-175 172.29,-181 172.29,-181 172.29,-193 172.29,-193 172.29,-199 166.29,-205 160.29,-205"/>
<text text-anchor="middle" x="123" y="-184" font-family="arial" font-size="10.00">Collection_Factory</text>
</g>
<!-- Forwarder&#45;&gt;Collection_Factory -->
<g id="edge5" class="edge">
<title>Forwarder&#45;&gt;Collection_Factory</title>
<path fill="none" stroke="green" stroke-dasharray="5,2" d="M264.26,-292.26C219.74,-289.03 140.69,-280.37 123.18,-259 113.38,-247.03 113.14,-229.73 115.45,-215.2"/>
<polygon fill="green" stroke="green" points="118.92,-215.72 117.48,-205.23 112.06,-214.33 118.92,-215.72"/>
<text text-anchor="middle" x="202.91" y="-250" font-family="arial" font-size="10.00" fill="green">Owner of;</text>
<text text-anchor="middle" x="202.91" y="-238" font-family="arial" font-size="10.00" fill="green"> The only address allowed to create</text>
<text text-anchor="middle" x="202.91" y="-226" font-family="arial" font-size="10.00" fill="green"> collections</text>
</g>
<!-- Forwarder&#45;&gt;Collection_Factory -->
<g id="edge10" class="edge">
<title>Forwarder&#45;&gt;Collection_Factory</title>
<path fill="none" stroke="orange" d="M264.39,-293.02C214.97,-290.67 121.85,-282.98 102,-259 91.8,-246.68 94.8,-228.93 101.47,-214.27"/>
<polygon fill="orange" stroke="orange" points="104.7,-215.64 106.28,-205.16 98.51,-212.37 104.7,-215.64"/>
</g>
<!-- Forwarder&#45;&gt;Collection_Factory -->
<!-- collection -->
<g id="node7" class="node">
<title>collection</title>
<path fill="none" stroke="black" d="M257.67,-132C257.67,-132 224.33,-132 224.33,-132 218.33,-132 212.33,-126 212.33,-120 212.33,-120 212.33,-108 212.33,-108 212.33,-102 218.33,-96 224.33,-96 224.33,-96 257.67,-96 257.67,-96 263.67,-96 269.67,-102 269.67,-108 269.67,-108 269.67,-120 269.67,-120 269.67,-126 263.67,-132 257.67,-132"/>
<text text-anchor="middle" x="241" y="-111" font-family="arial" font-size="10.00">collection</text>
</g>
<!-- Forwarder&#45;&gt;collection -->
<g id="edge6" class="edge">
<title>Forwarder&#45;&gt;collection</title>
<path fill="none" stroke="green" stroke-dasharray="5,2" d="M309.65,-276.91C329.17,-251.94 358.93,-204.61 338,-169 325.38,-147.53 300.79,-133.98 279.52,-125.82"/>
<polygon fill="green" stroke="green" points="280.64,-122.5 270.04,-122.44 278.29,-129.09 280.64,-122.5"/>
<text text-anchor="middle" x="381.95" y="-196" font-family="arial" font-size="10.00" fill="green">Owner of;</text>
<text text-anchor="middle" x="381.95" y="-184" font-family="arial" font-size="10.00" fill="green"> Approve/Reject;</text>
<text text-anchor="middle" x="381.95" y="-172" font-family="arial" font-size="10.00" fill="green">Rescue items;</text>
</g>
<!-- Forwarder&#45;&gt;collection -->
<!-- Collection -->
<g id="node10" class="node">
<title>Collection</title>
<path fill="none" stroke="black" d="M316.89,-205C316.89,-205 281.11,-205 281.11,-205 275.11,-205 269.11,-199 269.11,-193 269.11,-193 269.11,-181 269.11,-181 269.11,-175 275.11,-169 281.11,-169 281.11,-169 316.89,-169 316.89,-169 322.89,-169 328.89,-175 328.89,-181 328.89,-181 328.89,-193 328.89,-193 328.89,-199 322.89,-205 316.89,-205"/>
<text text-anchor="middle" x="299" y="-184" font-family="arial" font-size="10.00">Collection</text>
</g>
<!-- Forwarder&#45;&gt;Collection -->
<g id="edge14" class="edge">
<title>Forwarder&#45;&gt;Collection</title>
<path fill="none" stroke="blue" d="M301.55,-276.8C303.37,-271.21 305.09,-264.92 306,-259 308.43,-243.19 307.58,-238.92 306,-223 305.75,-220.46 305.4,-217.84 304.99,-215.22"/>
<polygon fill="blue" stroke="blue" points="308.42,-214.55 303.17,-205.34 301.54,-215.81 308.42,-214.55"/>
</g>
<!-- Collection_Manager&#45;&gt;Forwarder -->
<g id="edge9" class="edge">
<title>Collection_Manager&#45;&gt;Forwarder</title>
<path fill="none" stroke="orange" d="M337.81,-349.81C327.15,-341.09 315.85,-330.34 307.16,-320.75"/>
<polygon fill="orange" stroke="orange" points="309.71,-318.34 300.55,-313.03 304.4,-322.9 309.71,-318.34"/>
</g>
<!-- Collection_Manager&#45;&gt;Forwarder -->
<g id="edge13" class="edge">
<title>Collection_Manager&#45;&gt;Forwarder</title>
<path fill="none" stroke="blue" d="M349.57,-349.81C340.55,-340.92 329.39,-329.91 319.51,-320.17"/>
<polygon fill="blue" stroke="blue" points="321.85,-317.56 312.27,-313.03 316.93,-322.54 321.85,-317.56"/>
</g>
<!-- Collection_Manager&#45;&gt;Forwarder -->
<!-- Collection_Manager&#45;&gt;Rarities -->
<g id="edge15" class="edge">
<title>Collection_Manager&#45;&gt;Rarities</title>
<path fill="none" stroke="pink" stroke-dasharray="5,2" d="M419.42,-353.65C446.94,-343.16 475,-325.28 475,-296 475,-296 475,-296 475,-113 475,-71.13 344.38,-39.35 278.32,-25.96"/>
<polygon fill="pink" stroke="pink" points="278.79,-22.49 268.3,-23.97 277.43,-29.35 278.79,-22.49"/>
<text text-anchor="middle" x="521.96" y="-190" font-family="arial" font-size="10.00" fill="pink"> &#160;&#160;Get rarity info.</text>
<text text-anchor="middle" x="521.96" y="-178" font-family="arial" font-size="10.00" fill="pink"> &#160;&#160;E.g: price to deploy</text>
</g>
<!-- Collection_Manager&#45;&gt;Rarities -->
<!-- Committee&#45;&gt;Collection_Manager -->
<g id="edge12" class="edge">
<title>Committee&#45;&gt;Collection_Manager</title>
<path fill="none" stroke="blue" d="M364.09,-451.86C369.24,-444.94 374.35,-436.57 377,-428 380.2,-417.65 379.13,-405.95 376.75,-395.71"/>
<polygon fill="blue" stroke="blue" points="380.11,-394.74 374.03,-386.06 373.37,-396.63 380.11,-394.74"/>
</g>
<!-- Collection_Factory&#45;&gt;collection -->
<g id="edge11" class="edge">
<title>Collection_Factory&#45;&gt;collection</title>
<path fill="none" stroke="orange" d="M151.26,-168.99C167.06,-159.49 186.93,-147.54 203.95,-137.29"/>
<polygon fill="orange" stroke="orange" points="205.79,-140.27 212.56,-132.11 202.18,-134.27 205.79,-140.27"/>
</g>
<!-- collection&#45;&gt;Rarities -->
<g id="edge16" class="edge">
<title>collection&#45;&gt;Rarities</title>
<path fill="none" stroke="pink" stroke-dasharray="5,2" d="M241,-95.76C241,-81.98 241,-62.4 241,-46.47"/>
<polygon fill="pink" stroke="pink" points="244.5,-46.13 241,-36.13 237.5,-46.13 244.5,-46.13"/>
<text text-anchor="middle" x="277.95" y="-69" font-family="arial" font-size="10.00" fill="pink"> &#160;&#160;Get rarity info.</text>
<text text-anchor="middle" x="277.95" y="-57" font-family="arial" font-size="10.00" fill="pink"> E.g: max supply</text>
</g>
<!-- Commitee_Member -->
<g id="node8" class="node">
<title>Commitee_Member</title>
<text text-anchor="middle" x="450" y="-580.4" font-family="arial" font-size="12.00">Commitee_Member</text>
</g>
<!-- Commitee_Member&#45;&gt;Committee -->
<g id="edge7" class="edge">
<title>Commitee_Member&#45;&gt;Committee</title>
<path fill="none" stroke="blue" d="M434.66,-565.99C417.83,-547.32 390.65,-517.18 371.42,-495.87"/>
<polygon fill="blue" stroke="blue" points="373.78,-493.25 364.48,-488.17 368.58,-497.94 373.78,-493.25"/>
<text text-anchor="middle" x="465.35" y="-539" font-family="arial" font-size="10.00" fill="blue"> &#160;&#160;Manage collections:</text>
<text text-anchor="middle" x="465.35" y="-527" font-family="arial" font-size="10.00" fill="blue">Approve/Reject;</text>
<text text-anchor="middle" x="465.35" y="-515" font-family="arial" font-size="10.00" fill="blue">Rescue items;</text>
</g>
<!-- User -->
<g id="node9" class="node">
<title>User</title>
<text text-anchor="middle" x="272" y="-466.4" font-family="arial" font-size="12.00">User</text>
</g>
<!-- User&#45;&gt;Collection_Manager -->
<g id="edge8" class="edge">
<title>User&#45;&gt;Collection_Manager</title>
<path fill="none" stroke="orange" d="M265.9,-451.92C262.01,-437.79 259.34,-417.85 269.1,-404 277.67,-391.83 290.88,-383.87 304.85,-378.67"/>
<polygon fill="orange" stroke="orange" points="306.17,-381.92 314.59,-375.49 304,-375.26 306.17,-381.92"/>
<text text-anchor="middle" x="320.95" y="-419" font-family="arial" font-size="10.00" fill="orange">Create collection</text>
<text text-anchor="middle" x="320.95" y="-407" font-family="arial" font-size="10.00" fill="orange"> by paying Matic MANA</text>
</g>
</g>
</svg>
