<?xml version="1.0" encoding="UTF-8" standalone="no"?>
<!DOCTYPE svg PUBLIC "-//W3C//DTD SVG 1.1//EN"
 "http://www.w3.org/Graphics/SVG/1.1/DTD/svg11.dtd">
<!-- Generated by graphviz version 2.44.0 (20200518.1210)
 -->
<!-- Pages: 1 -->
<svg width="1165pt" height="728pt"
 viewBox="0.00 0.00 1165.13 728.00" xmlns="http://www.w3.org/2000/svg" xmlns:xlink="http://www.w3.org/1999/xlink">
<g id="graph0" class="graph" transform="scale(1 1) rotate(0) translate(4 724)">
<polygon fill="white" stroke="transparent" points="-4,4 -4,-724 1161.13,-724 1161.13,4 -4,4"/>
<!-- DAO_L2_Bridge -->
<g id="node1" class="node">
<title>DAO_L2_Bridge</title>
<path fill="none" stroke="black" d="M755.3,-720C755.3,-720 690.7,-720 690.7,-720 684.7,-720 678.7,-714 678.7,-708 678.7,-708 678.7,-696 678.7,-696 678.7,-690 684.7,-684 690.7,-684 690.7,-684 755.3,-684 755.3,-684 761.3,-684 767.3,-690 767.3,-696 767.3,-696 767.3,-708 767.3,-708 767.3,-714 761.3,-720 755.3,-720"/>
<text text-anchor="middle" x="723" y="-699" font-family="arial" font-size="10.00">DAO_L2_Bridge</text>
</g>
<!-- Marketplace -->
<g id="node2" class="node">
<title>Marketplace</title>
<path fill="none" stroke="black" d="M828.45,-600C828.45,-600 781.55,-600 781.55,-600 775.55,-600 769.55,-594 769.55,-588 769.55,-588 769.55,-576 769.55,-576 769.55,-570 775.55,-564 781.55,-564 781.55,-564 828.45,-564 828.45,-564 834.45,-564 840.45,-570 840.45,-576 840.45,-576 840.45,-588 840.45,-588 840.45,-594 834.45,-600 828.45,-600"/>
<text text-anchor="middle" x="805" y="-579" font-family="arial" font-size="10.00">Marketplace</text>
</g>
<!-- DAO_L2_Bridge&#45;&gt;Marketplace -->
<g id="edge1" class="edge">
<title>DAO_L2_Bridge&#45;&gt;Marketplace</title>
<path fill="none" stroke="green" stroke-dasharray="5,2" d="M741.12,-683.65C746.26,-678.26 751.63,-672.12 756,-666 769.99,-646.39 768.81,-638.66 781.2,-618 783.03,-614.95 785.03,-611.79 787.05,-608.69"/>
<polygon fill="green" stroke="green" points="790.08,-610.45 792.74,-600.19 784.27,-606.55 790.08,-610.45"/>
<text text-anchor="middle" x="817.4" y="-657" font-family="arial" font-size="10.00" fill="green">Owner of;</text>
<text text-anchor="middle" x="817.4" y="-645" font-family="arial" font-size="10.00" fill="green">Set fees for</text>
<text text-anchor="middle" x="817.4" y="-633" font-family="arial" font-size="10.00" fill="green"> secondary sale;</text>
<text text-anchor="middle" x="817.4" y="-621" font-family="arial" font-size="10.00" fill="green"> Collect fees;</text>
</g>
<!-- Store -->
<g id="node3" class="node">
<title>Store</title>
<path fill="none" stroke="black" d="M959,-600C959,-600 929,-600 929,-600 923,-600 917,-594 917,-588 917,-588 917,-576 917,-576 917,-570 923,-564 929,-564 929,-564 959,-564 959,-564 965,-564 971,-570 971,-576 971,-576 971,-588 971,-588 971,-594 965,-600 959,-600"/>
<text text-anchor="middle" x="944" y="-579" font-family="arial" font-size="10.00">Store</text>
</g>
<!-- DAO_L2_Bridge&#45;&gt;Store -->
<g id="edge2" class="edge">
<title>DAO_L2_Bridge&#45;&gt;Store</title>
<path fill="none" stroke="green" stroke-dasharray="5,2" d="M767.33,-699.5C801.12,-696.5 847.56,-688.22 882,-666 903.59,-652.07 920.39,-627.84 931.03,-609.14"/>
<polygon fill="green" stroke="green" points="934.18,-610.67 935.88,-600.22 928.03,-607.33 934.18,-610.67"/>
<text text-anchor="middle" x="954" y="-657" font-family="arial" font-size="10.00" fill="green">Owner of;</text>
<text text-anchor="middle" x="954" y="-645" font-family="arial" font-size="10.00" fill="green">Set fees for</text>
<text text-anchor="middle" x="954" y="-633" font-family="arial" font-size="10.00" fill="green"> primary sale;</text>
<text text-anchor="middle" x="954" y="-621" font-family="arial" font-size="10.00" fill="green"> Collect fees;</text>
</g>
<!-- Forwarder -->
<g id="node4" class="node">
<title>Forwarder</title>
<path fill="none" stroke="black" d="M499.55,-492C499.55,-492 462.45,-492 462.45,-492 456.45,-492 450.45,-486 450.45,-480 450.45,-480 450.45,-468 450.45,-468 450.45,-462 456.45,-456 462.45,-456 462.45,-456 499.55,-456 499.55,-456 505.55,-456 511.55,-462 511.55,-468 511.55,-468 511.55,-480 511.55,-480 511.55,-486 505.55,-492 499.55,-492"/>
<text text-anchor="middle" x="481" y="-471" font-family="arial" font-size="10.00">Forwarder</text>
</g>
<!-- DAO_L2_Bridge&#45;&gt;Forwarder -->
<g id="edge3" class="edge">
<title>DAO_L2_Bridge&#45;&gt;Forwarder</title>
<path fill="none" stroke="green" stroke-dasharray="5,2" d="M704.41,-683.64C661.55,-643.61 555.7,-544.76 506.68,-498.98"/>
<polygon fill="green" stroke="green" points="509.02,-496.38 499.32,-492.11 504.24,-501.49 509.02,-496.38"/>
<text text-anchor="middle" x="640" y="-585" font-family="arial" font-size="10.00" fill="green">Owner of;</text>
<text text-anchor="middle" x="640" y="-573" font-family="arial" font-size="10.00" fill="green"> &#160;Set caller;</text>
</g>
<!-- DAO_L2_Bridge&#45;&gt;Forwarder -->
<!-- Collection_Manager -->
<g id="node5" class="node">
<title>Collection_Manager</title>
<path fill="none" stroke="black" d="M333.4,-366C333.4,-366 252.6,-366 252.6,-366 246.6,-366 240.6,-360 240.6,-354 240.6,-354 240.6,-342 240.6,-342 240.6,-336 246.6,-330 252.6,-330 252.6,-330 333.4,-330 333.4,-330 339.4,-330 345.4,-336 345.4,-342 345.4,-342 345.4,-354 345.4,-354 345.4,-360 339.4,-366 333.4,-366"/>
<text text-anchor="middle" x="293" y="-345" font-family="arial" font-size="10.00">Collection_Manager</text>
</g>
<!-- DAO_L2_Bridge&#45;&gt;Collection_Manager -->
<g id="edge4" class="edge">
<title>DAO_L2_Bridge&#45;&gt;Collection_Manager</title>
<path fill="none" stroke="green" stroke-dasharray="5,2" d="M678.56,-698.29C592.71,-692.77 410.29,-679.62 385,-666 277.33,-608.02 259.86,-556.83 231,-438 225.96,-417.27 220.9,-408.79 231,-390 234.74,-383.05 240.23,-377.08 246.42,-372.01"/>
<polygon fill="green" stroke="green" points="248.54,-374.8 254.57,-366.08 244.42,-369.14 248.54,-374.8"/>
<text text-anchor="middle" x="320.12" y="-537" font-family="arial" font-size="10.00" fill="green">Owner of;</text>
<text text-anchor="middle" x="320.12" y="-525" font-family="arial" font-size="10.00" fill="green"> Set protocol parameters:</text>
<text text-anchor="middle" x="320.12" y="-513" font-family="arial" font-size="10.00" fill="green">Committee address;</text>
</g>
<!-- Committee -->
<g id="node6" class="node">
<title>Committee</title>
<path fill="none" stroke="black" d="M433.33,-600C433.33,-600 392.67,-600 392.67,-600 386.67,-600 380.67,-594 380.67,-588 380.67,-588 380.67,-576 380.67,-576 380.67,-570 386.67,-564 392.67,-564 392.67,-564 433.33,-564 433.33,-564 439.33,-564 445.33,-570 445.33,-576 445.33,-576 445.33,-588 445.33,-588 445.33,-594 439.33,-600 433.33,-600"/>
<text text-anchor="middle" x="413" y="-579" font-family="arial" font-size="10.00">Committee</text>
</g>
<!-- DAO_L2_Bridge&#45;&gt;Committee -->
<g id="edge5" class="edge">
<title>DAO_L2_Bridge&#45;&gt;Committee</title>
<path fill="none" stroke="green" stroke-dasharray="5,2" d="M678.3,-698.68C622.49,-694.96 531.06,-685.97 504.21,-666 485.19,-651.86 497.55,-634.96 481,-618 473.48,-610.29 463.91,-603.96 454.33,-598.9"/>
<polygon fill="green" stroke="green" points="455.73,-595.69 445.21,-594.43 452.65,-601.97 455.73,-595.69"/>
<text text-anchor="middle" x="558.9" y="-645" font-family="arial" font-size="10.00" fill="green">Owner of;</text>
<text text-anchor="middle" x="558.9" y="-633" font-family="arial" font-size="10.00" fill="green"> Add/Remove members;</text>
</g>
<!-- Rarities -->
<g id="node7" class="node">
<title>Rarities</title>
<path fill="none" stroke="black" d="M324,-36C324,-36 294,-36 294,-36 288,-36 282,-30 282,-24 282,-24 282,-12 282,-12 282,-6 288,0 294,0 294,0 324,0 324,0 330,0 336,-6 336,-12 336,-12 336,-24 336,-24 336,-30 330,-36 324,-36"/>
<text text-anchor="middle" x="309" y="-15" font-family="arial" font-size="10.00">Rarities</text>
</g>
<!-- DAO_L2_Bridge&#45;&gt;Rarities -->
<g id="edge6" class="edge">
<title>DAO_L2_Bridge&#45;&gt;Rarities</title>
<path fill="none" stroke="green" stroke-dasharray="5,2" d="M767.48,-698.73C832.66,-694.81 950.48,-685.24 988,-666 1033.04,-642.9 1066,-633.62 1066,-583 1066,-583 1066,-583 1066,-113 1066,-90.8 1059.6,-83.07 917,-54 806.99,-31.58 461.08,-22.27 346.37,-19.75"/>
<polygon fill="green" stroke="green" points="346.39,-16.25 336.32,-19.53 346.24,-23.25 346.39,-16.25"/>
<text text-anchor="middle" x="1111.57" y="-351" font-family="arial" font-size="10.00" fill="green">Owner of;</text>
<text text-anchor="middle" x="1111.57" y="-339" font-family="arial" font-size="10.00" fill="green"> Add/Update rarities;</text>
</g>
<!-- DAO_L2_Bridge&#45;&gt;Rarities -->
<!-- Collection_Factory -->
<g id="node8" class="node">
<title>Collection_Factory</title>
<path fill="none" stroke="black" d="M706.29,-252C706.29,-252 631.71,-252 631.71,-252 625.71,-252 619.71,-246 619.71,-240 619.71,-240 619.71,-228 619.71,-228 619.71,-222 625.71,-216 631.71,-216 631.71,-216 706.29,-216 706.29,-216 712.29,-216 718.29,-222 718.29,-228 718.29,-228 718.29,-240 718.29,-240 718.29,-246 712.29,-252 706.29,-252"/>
<text text-anchor="middle" x="669" y="-231" font-family="arial" font-size="10.00">Collection_Factory</text>
</g>
<!-- DAO_L2_Bridge&#45;&gt;Collection_Factory -->
<!-- Collection -->
<g id="node9" class="node">
<title>Collection</title>
<path fill="none" stroke="black" d="M464.89,-132C464.89,-132 429.11,-132 429.11,-132 423.11,-132 417.11,-126 417.11,-120 417.11,-120 417.11,-108 417.11,-108 417.11,-102 423.11,-96 429.11,-96 429.11,-96 464.89,-96 464.89,-96 470.89,-96 476.89,-102 476.89,-108 476.89,-108 476.89,-120 476.89,-120 476.89,-126 470.89,-132 464.89,-132"/>
<text text-anchor="middle" x="447" y="-111" font-family="arial" font-size="10.00">Collection</text>
</g>
<!-- DAO_L2_Bridge&#45;&gt;Collection -->
<!-- Marketplace&#45;&gt;Forwarder -->
<!-- Marketplace&#45;&gt;Rarities -->
<!-- Marketplace&#45;&gt;Collection_Factory -->
<!-- Marketplace&#45;&gt;Collection -->
<!-- Store&#45;&gt;Forwarder -->
<!-- Store&#45;&gt;Rarities -->
<!-- Store&#45;&gt;Collection_Factory -->
<!-- Store&#45;&gt;Collection -->
<!-- Forwarder&#45;&gt;Collection_Manager -->
<g id="edge12" class="edge">
<title>Forwarder&#45;&gt;Collection_Manager</title>
<path fill="none" stroke="magenta" stroke-dasharray="5,2" d="M450.15,-473.22C392.03,-472.9 269.78,-468.53 243.42,-438 229.48,-421.85 234.34,-409.3 243.42,-390 246.43,-383.62 250.97,-377.89 256.1,-372.88"/>
<polygon fill="magenta" stroke="magenta" points="258.69,-375.27 263.94,-366.06 254.1,-369.98 258.69,-375.27"/>
<text text-anchor="middle" x="296.79" y="-429" font-family="arial" font-size="10.00" fill="magenta">&#39;caller&#39; stored in</text>
<text text-anchor="middle" x="296.79" y="-417" font-family="arial" font-size="10.00" fill="magenta"> the contract state</text>
<text text-anchor="middle" x="296.79" y="-405" font-family="arial" font-size="10.00" fill="magenta"> (The owner is the other</text>
<text text-anchor="middle" x="296.79" y="-393" font-family="arial" font-size="10.00" fill="magenta"> allowed caller)</text>
</g>
<!-- Forwarder&#45;&gt;Collection_Factory -->
<g id="edge7" class="edge">
<title>Forwarder&#45;&gt;Collection_Factory</title>
<path fill="none" stroke="red" stroke-dasharray="5,2" d="M488.27,-455.66C490.53,-450.06 492.96,-443.8 495,-438 512.6,-388.03 497.83,-366.2 529.86,-324 552.64,-293.99 588.7,-271.33 618.4,-256.4"/>
<polygon fill="red" stroke="red" points="619.94,-259.54 627.39,-252.01 616.87,-253.25 619.94,-259.54"/>
<text text-anchor="middle" x="588.07" y="-363" font-family="arial" font-size="10.00" fill="red">Owner of;</text>
<text text-anchor="middle" x="588.07" y="-351" font-family="arial" font-size="10.00" fill="red"> The only address allowed</text>
<text text-anchor="middle" x="588.07" y="-339" font-family="arial" font-size="10.00" fill="red"> to create</text>
<text text-anchor="middle" x="588.07" y="-327" font-family="arial" font-size="10.00" fill="red"> collections</text>
</g>
<!-- Forwarder&#45;&gt;Collection_Factory -->
<g id="edge13" class="edge">
<title>Forwarder&#45;&gt;Collection_Factory</title>
<path fill="none" stroke="orange" d="M511.7,-460.66C547.85,-445.91 606.36,-417.37 637,-372 659.24,-339.07 662.38,-291.78 664.19,-262.25"/>
<polygon fill="orange" stroke="orange" points="667.69,-262.44 664.83,-252.24 660.7,-261.99 667.69,-262.44"/>
</g>
<!-- Forwarder&#45;&gt;Collection_Factory -->
<!-- Forwarder&#45;&gt;Collection -->
<g id="edge8" class="edge">
<title>Forwarder&#45;&gt;Collection</title>
<path fill="none" stroke="red" stroke-dasharray="5,2" d="M479.36,-455.73C473.9,-398.19 456.27,-212.66 449.6,-142.35"/>
<polygon fill="red" stroke="red" points="453.05,-141.72 448.62,-132.09 446.08,-142.38 453.05,-141.72"/>
<text text-anchor="middle" x="501.95" y="-297" font-family="arial" font-size="10.00" fill="red">Owner of;</text>
<text text-anchor="middle" x="501.95" y="-285" font-family="arial" font-size="10.00" fill="red"> Approve/Reject;</text>
<text text-anchor="middle" x="501.95" y="-273" font-family="arial" font-size="10.00" fill="red">Rescue items;</text>
</g>
<!-- Forwarder&#45;&gt;Collection -->
<g id="edge17" class="edge">
<title>Forwarder&#45;&gt;Collection</title>
<path fill="none" stroke="blue" d="M466.23,-455.74C463.99,-450.15 462.19,-443.87 461,-438 439.71,-332.98 443.12,-305.03 438,-198 437.12,-179.52 437.12,-158.7 438.48,-142.54"/>
<polygon fill="blue" stroke="blue" points="442,-142.51 439.64,-132.18 435.05,-141.73 442,-142.51"/>
</g>
<!-- Forwarder&#45;&gt;Collection -->
<!-- Collection_Manager&#45;&gt;Forwarder -->
<g id="edge11" class="edge">
<title>Collection_Manager&#45;&gt;Forwarder</title>
<path fill="none" stroke="orange" d="M304.05,-366.07C325.54,-384.24 368.36,-413.68 406,-438 416.96,-445.08 429.28,-452.69 441.17,-459"/>
<polygon fill="orange" stroke="orange" points="439.66,-462.15 450.16,-463.54 442.81,-455.9 439.66,-462.15"/>
</g>
<!-- Collection_Manager&#45;&gt;Forwarder -->
<g id="edge16" class="edge">
<title>Collection_Manager&#45;&gt;Forwarder</title>
<path fill="none" stroke="blue" d="M317.4,-366.07C343.54,-384.24 386.36,-413.68 424,-438 430.37,-442.12 437.2,-446.41 443.84,-450.52"/>
<polygon fill="blue" stroke="blue" points="442.37,-453.73 452.72,-455.99 446.04,-447.76 442.37,-453.73"/>
</g>
<!-- Collection_Manager&#45;&gt;Forwarder -->
<!-- Collection_Manager&#45;&gt;Rarities -->
<g id="edge18" class="edge">
<title>Collection_Manager&#45;&gt;Rarities</title>
<path fill="none" stroke="purple" stroke-dasharray="5,2" d="M271.55,-329.78C232.72,-296.39 157.25,-219.93 185.08,-150 203.23,-104.4 245.62,-65.53 275.75,-42.24"/>
<polygon fill="purple" stroke="purple" points="278.03,-44.91 283.9,-36.09 273.81,-39.32 278.03,-44.91"/>
<text text-anchor="middle" x="232.96" y="-189" font-family="arial" font-size="10.00" fill="purple">&#39;rarities &#39;Stored</text>
<text text-anchor="middle" x="232.96" y="-177" font-family="arial" font-size="10.00" fill="purple"> in the contract state</text>
<text text-anchor="middle" x="232.96" y="-165" font-family="arial" font-size="10.00" fill="purple">Get rarity info.</text>
<text text-anchor="middle" x="232.96" y="-153" font-family="arial" font-size="10.00" fill="purple"> &#160;&#160;E.g: price to deploy</text>
</g>
<!-- Collection_Manager&#45;&gt;Rarities -->
<!-- Collection_Manager&#45;&gt;Collection_Factory -->
<!-- Collection_Manager&#45;&gt;Collection -->
<!-- Committee&#45;&gt;Forwarder -->
<!-- Committee&#45;&gt;Collection_Manager -->
<g id="edge15" class="edge">
<title>Committee&#45;&gt;Collection_Manager</title>
<path fill="none" stroke="blue" d="M380.82,-580.67C334.16,-579.23 245.68,-572.81 176,-546 135.62,-530.46 115.42,-530.15 95,-492 86.82,-476.72 90.29,-400.11 99,-390 115.93,-370.36 180.1,-359.64 230.05,-354.14"/>
<polygon fill="blue" stroke="blue" points="230.58,-357.61 240.16,-353.08 229.84,-350.64 230.58,-357.61"/>
</g>
<!-- Committee&#45;&gt;Rarities -->
<!-- Committee&#45;&gt;Collection_Factory -->
<!-- Committee&#45;&gt;Collection -->
<!-- Collection_Factory&#45;&gt;Collection -->
<g id="edge14" class="edge">
<title>Collection_Factory&#45;&gt;Collection</title>
<path fill="none" stroke="orange" d="M636.72,-215.84C596.83,-194.64 529.01,-158.59 486.18,-135.83"/>
<polygon fill="orange" stroke="orange" points="487.65,-132.65 477.18,-131.04 484.37,-138.83 487.65,-132.65"/>
</g>
<!-- Collection&#45;&gt;Rarities -->
<g id="edge19" class="edge">
<title>Collection&#45;&gt;Rarities</title>
<path fill="none" stroke="pink" stroke-dasharray="5,2" d="M422.01,-95.98C399.78,-80.83 367.08,-58.56 342.57,-41.87"/>
<polygon fill="pink" stroke="pink" points="344.51,-38.95 334.27,-36.21 340.57,-44.74 344.51,-38.95"/>
<text text-anchor="middle" x="431.95" y="-69" font-family="arial" font-size="10.00" fill="pink"> Get rarity info.</text>
<text text-anchor="middle" x="431.95" y="-57" font-family="arial" font-size="10.00" fill="pink"> E.g: max supply</text>
</g>
<!-- Committee_Member -->
<g id="node10" class="node">
<title>Committee_Member</title>
<text text-anchor="middle" x="392" y="-698.4" font-family="arial" font-size="12.00">Committee_Member</text>
</g>
<!-- Committee_Member&#45;&gt;Committee -->
<g id="edge9" class="edge">
<title>Committee_Member&#45;&gt;Committee</title>
<path fill="none" stroke="blue" d="M389.6,-683.8C387.81,-666.76 386.6,-640.1 392.65,-618 393.47,-614.98 394.63,-611.95 395.97,-609"/>
<polygon fill="blue" stroke="blue" points="399.15,-610.48 400.75,-600.01 392.97,-607.2 399.15,-610.48"/>
<text text-anchor="middle" x="437.18" y="-651" font-family="arial" font-size="10.00" fill="blue">Manage collections:</text>
<text text-anchor="middle" x="437.18" y="-639" font-family="arial" font-size="10.00" fill="blue">Approve/Reject;</text>
<text text-anchor="middle" x="437.18" y="-627" font-family="arial" font-size="10.00" fill="blue">Rescue items;</text>
</g>
<!-- User -->
<g id="node11" class="node">
<title>User</title>
<text text-anchor="middle" x="131" y="-470.4" font-family="arial" font-size="12.00">User</text>
</g>
<!-- User&#45;&gt;Collection_Manager -->
<g id="edge10" class="edge">
<title>User&#45;&gt;Collection_Manager</title>
<path fill="none" stroke="orange" d="M118.77,-455.93C107.38,-437.75 94.28,-409.05 109.55,-390 124.61,-371.2 183.33,-360.44 230.34,-354.71"/>
<polygon fill="orange" stroke="orange" points="230.95,-358.16 240.47,-353.53 230.14,-351.21 230.95,-358.16"/>
<text text-anchor="middle" x="147.23" y="-423" font-family="arial" font-size="10.00" fill="orange">Create collection</text>
<text text-anchor="middle" x="147.23" y="-411" font-family="arial" font-size="10.00" fill="orange"> by paying</text>
<text text-anchor="middle" x="147.23" y="-399" font-family="arial" font-size="10.00" fill="orange"> Matic MANA</text>
</g>
</g>
</svg>
