<?xml version="1.0" encoding="UTF-8" standalone="no"?>
<!DOCTYPE svg PUBLIC "-//W3C//DTD SVG 1.1//EN"
 "http://www.w3.org/Graphics/SVG/1.1/DTD/svg11.dtd">
<!-- Generated by graphviz version 2.44.0 (20200518.1210)
 -->
<!-- Pages: 1 -->
<svg width="375pt" height="540pt"
 viewBox="0.00 0.00 374.98 540.00" xmlns="http://www.w3.org/2000/svg" xmlns:xlink="http://www.w3.org/1999/xlink">
<g id="graph0" class="graph" transform="scale(1 1) rotate(0) translate(4 536)">
<polygon fill="white" stroke="transparent" points="-4,4 -4,-536 370.98,-536 370.98,4 -4,4"/>
<g id="clust1" class="cluster">
<title>cluster_ethereum</title>
<polygon fill="none" stroke="green" points="39,-290 39,-458 278,-458 278,-290 39,-290"/>
<text text-anchor="middle" x="158.5" y="-445" font-family="arial" font-size="10.00" fill="grey">Root Blockchain</text>
</g>
<g id="clust2" class="cluster">
<title>cluster_matic</title>
<polygon fill="none" stroke="blue" points="8,-8 8,-260 331,-260 331,-8 8,-8"/>
<text text-anchor="middle" x="169.5" y="-247" font-family="arial" font-size="10.00" fill="grey">Child Blockchain</text>
</g>
<!-- CollectionsBridgeRoot -->
<g id="node1" class="node">
<title>CollectionsBridgeRoot</title>
<path fill="none" stroke="black" d="M149.4,-430C149.4,-430 58.6,-430 58.6,-430 52.6,-430 46.6,-424 46.6,-418 46.6,-418 46.6,-406 46.6,-406 46.6,-400 52.6,-394 58.6,-394 58.6,-394 149.4,-394 149.4,-394 155.4,-394 161.4,-400 161.4,-406 161.4,-406 161.4,-418 161.4,-418 161.4,-424 155.4,-430 149.4,-430"/>
<text text-anchor="middle" x="104" y="-409" font-family="arial" font-size="10.00">CollectionsBridgeRoot</text>
</g>
<!-- FxRoot -->
<g id="node2" class="node">
<title>FxRoot</title>
<path fill="none" stroke="black" d="M89,-334C89,-334 59,-334 59,-334 53,-334 47,-328 47,-322 47,-322 47,-310 47,-310 47,-304 53,-298 59,-298 59,-298 89,-298 89,-298 95,-298 101,-304 101,-310 101,-310 101,-322 101,-322 101,-328 95,-334 89,-334"/>
<text text-anchor="middle" x="74" y="-313" font-family="arial" font-size="10.00">FxRoot</text>
</g>
<!-- CollectionsBridgeRoot&#45;&gt;FxRoot -->
<g id="edge1" class="edge">
<title>CollectionsBridgeRoot&#45;&gt;FxRoot</title>
<path fill="none" stroke="green" stroke-dasharray="5,2" d="M98.5,-393.76C94.06,-379.85 87.73,-360.02 82.62,-344.01"/>
<polygon fill="green" stroke="green" points="85.84,-342.59 79.47,-334.13 79.17,-344.72 85.84,-342.59"/>
<text text-anchor="middle" x="194.53" y="-367" font-family="arial" font-size="10.00" fill="green"> &#160;&#160;Message: Deposited token1 from collection1</text>
<text text-anchor="middle" x="194.53" y="-355" font-family="arial" font-size="10.00" fill="green"> with tokenURI_1</text>
</g>
<!-- FxChild -->
<g id="node5" class="node">
<title>FxChild</title>
<path fill="none" stroke="black" d="M89,-232C89,-232 59,-232 59,-232 53,-232 47,-226 47,-220 47,-220 47,-208 47,-208 47,-202 53,-196 59,-196 59,-196 89,-196 89,-196 95,-196 101,-202 101,-208 101,-208 101,-220 101,-220 101,-226 95,-232 89,-232"/>
<text text-anchor="middle" x="74" y="-211" font-family="arial" font-size="10.00">FxChild</text>
</g>
<!-- FxRoot&#45;&gt;FxChild -->
<g id="edge5" class="edge">
<title>FxRoot&#45;&gt;FxChild</title>
<path fill="none" stroke="green" stroke-dasharray="5,2" d="M74,-297.58C74,-282.38 74,-260.07 74,-242.46"/>
<polygon fill="green" stroke="green" points="77.5,-242.22 74,-232.22 70.5,-242.22 77.5,-242.22"/>
<text text-anchor="middle" x="148.19" y="-271" font-family="arial" font-size="10.00"> &#160;send deposit message from root</text>
</g>
<!-- CollectionsBridgeChild -->
<g id="node3" class="node">
<title>CollectionsBridgeChild</title>
<path fill="none" stroke="black" d="M120.06,-148C120.06,-148 27.94,-148 27.94,-148 21.94,-148 15.94,-142 15.94,-136 15.94,-136 15.94,-124 15.94,-124 15.94,-118 21.94,-112 27.94,-112 27.94,-112 120.06,-112 120.06,-112 126.06,-112 132.06,-118 132.06,-124 132.06,-124 132.06,-136 132.06,-136 132.06,-142 126.06,-148 120.06,-148"/>
<text text-anchor="middle" x="74" y="-127" font-family="arial" font-size="10.00">CollectionsBridgeChild</text>
</g>
<!-- ERC721BridgedCollection -->
<g id="node4" class="node">
<title>ERC721BridgedCollection</title>
<path fill="none" stroke="black" d="M136.13,-52C136.13,-52 27.87,-52 27.87,-52 21.87,-52 15.87,-46 15.87,-40 15.87,-40 15.87,-28 15.87,-28 15.87,-22 21.87,-16 27.87,-16 27.87,-16 136.13,-16 136.13,-16 142.13,-16 148.13,-22 148.13,-28 148.13,-28 148.13,-40 148.13,-40 148.13,-46 142.13,-52 136.13,-52"/>
<text text-anchor="middle" x="82" y="-31" font-family="arial" font-size="10.00">ERC721BridgedCollection</text>
</g>
<!-- CollectionsBridgeChild&#45;&gt;ERC721BridgedCollection -->
<g id="edge3" class="edge">
<title>CollectionsBridgeChild&#45;&gt;ERC721BridgedCollection</title>
<path fill="none" stroke="green" stroke-dasharray="5,2" d="M75.47,-111.76C76.64,-97.98 78.31,-78.4 79.66,-62.47"/>
<polygon fill="green" stroke="green" points="83.18,-62.39 80.54,-52.13 76.21,-61.8 83.18,-62.39"/>
<text text-anchor="middle" x="222.49" y="-85" font-family="arial" font-size="10.00" fill="green"> &#160;mint token to User with </text>
<text text-anchor="middle" x="222.49" y="-73" font-family="arial" font-size="10.00" fill="green"> &#160;&#160;{collection: collection1, tokenId: token1, tokenURI: tokenURI_1}</text>
</g>
<!-- FxChild&#45;&gt;CollectionsBridgeChild -->
<g id="edge2" class="edge">
<title>FxChild&#45;&gt;CollectionsBridgeChild</title>
<path fill="none" stroke="green" stroke-dasharray="5,2" d="M74,-195.61C74,-184.77 74,-170.6 74,-158.29"/>
<polygon fill="green" stroke="green" points="77.5,-158.08 74,-148.08 70.5,-158.08 77.5,-158.08"/>
<text text-anchor="middle" x="137.9" y="-169" font-family="arial" font-size="10.00" fill="green"> &#160;Receive message from root</text>
</g>
<!-- User -->
<g id="node6" class="node">
<title>User</title>
<text text-anchor="middle" x="104" y="-510.4" font-family="arial" font-size="12.00">User</text>
</g>
<!-- User&#45;&gt;CollectionsBridgeRoot -->
<g id="edge4" class="edge">
<title>User&#45;&gt;CollectionsBridgeRoot</title>
<path fill="none" stroke="black" d="M104,-495.58C104,-480.38 104,-458.07 104,-440.46"/>
<polygon fill="black" stroke="black" points="107.5,-440.22 104,-430.22 100.5,-440.22 107.5,-440.22"/>
<text text-anchor="middle" x="190.96" y="-469" font-family="arial" font-size="10.00"> &#160;&#160;&#160;Deposit/lock token1 from collection1 </text>
</g>
</g>
</svg>
