<?xml version="1.0" encoding="UTF-8" standalone="no"?>
<!DOCTYPE svg PUBLIC "-//W3C//DTD SVG 1.1//EN"
 "http://www.w3.org/Graphics/SVG/1.1/DTD/svg11.dtd">
<!-- Generated by graphviz version 2.44.0 (20200518.1210)
 -->
<!-- Pages: 1 -->
<svg width="760pt" height="270pt"
 viewBox="0.00 0.00 760.00 270.00" xmlns="http://www.w3.org/2000/svg" xmlns:xlink="http://www.w3.org/1999/xlink">
<g id="graph0" class="graph" transform="scale(1 1) rotate(0) translate(4 266)">
<polygon fill="white" stroke="transparent" points="-4,4 -4,-266 756,-266 756,4 -4,4"/>
<g id="clust1" class="cluster">
<title>cluster_matic</title>
<polygon fill="none" stroke="blue" points="8,-8 8,-176 396,-176 396,-8 8,-8"/>
<text text-anchor="middle" x="202" y="-163" font-family="arial" font-size="10.00" fill="grey">Child Blockchain</text>
</g>
<g id="clust2" class="cluster">
<title>cluster_ethereum</title>
<polygon fill="none" stroke="green" points="404,-8 404,-176 744,-176 744,-8 404,-8"/>
<text text-anchor="middle" x="574" y="-163" font-family="arial" font-size="10.00" fill="grey">Root Blockchain</text>
</g>
<!-- CollectionsBridgeChild -->
<g id="node1" class="node">
<title>CollectionsBridgeChild</title>
<path fill="none" stroke="black" d="M120.06,-148C120.06,-148 27.94,-148 27.94,-148 21.94,-148 15.94,-142 15.94,-136 15.94,-136 15.94,-124 15.94,-124 15.94,-118 21.94,-112 27.94,-112 27.94,-112 120.06,-112 120.06,-112 126.06,-112 132.06,-118 132.06,-124 132.06,-124 132.06,-136 132.06,-136 132.06,-142 126.06,-148 120.06,-148"/>
<text text-anchor="middle" x="74" y="-127" font-family="arial" font-size="10.00">CollectionsBridgeChild</text>
</g>
<!-- CollectionsBridgeChild&#45;&gt;CollectionsBridgeChild -->
<g id="edge2" class="edge">
<title>CollectionsBridgeChild&#45;&gt;CollectionsBridgeChild</title>
<path fill="none" stroke="blue" stroke-dasharray="5,2" d="M132.2,-138.51C142.83,-137.43 150.28,-134.59 150.28,-130 150.28,-127.06 147.22,-124.84 142.23,-123.34"/>
<polygon fill="blue" stroke="blue" points="142.67,-119.86 132.2,-121.49 141.41,-126.74 142.67,-119.86"/>
<text text-anchor="middle" x="269.76" y="-127" font-family="arial" font-size="10.00" fill="blue"> &#160;2. emit MessageSent with the token unlock message</text>
</g>
<!-- ERC721BridgedCollection -->
<g id="node2" class="node">
<title>ERC721BridgedCollection</title>
<path fill="none" stroke="black" d="M136.13,-52C136.13,-52 27.87,-52 27.87,-52 21.87,-52 15.87,-46 15.87,-40 15.87,-40 15.87,-28 15.87,-28 15.87,-22 21.87,-16 27.87,-16 27.87,-16 136.13,-16 136.13,-16 142.13,-16 148.13,-22 148.13,-28 148.13,-28 148.13,-40 148.13,-40 148.13,-46 142.13,-52 136.13,-52"/>
<text text-anchor="middle" x="82" y="-31" font-family="arial" font-size="10.00">ERC721BridgedCollection</text>
</g>
<!-- CollectionsBridgeChild&#45;&gt;ERC721BridgedCollection -->
<g id="edge1" class="edge">
<title>CollectionsBridgeChild&#45;&gt;ERC721BridgedCollection</title>
<path fill="none" stroke="blue" stroke-dasharray="5,2" d="M75.47,-111.76C76.64,-97.98 78.31,-78.4 79.66,-62.47"/>
<polygon fill="blue" stroke="blue" points="83.18,-62.39 80.54,-52.13 76.21,-61.8 83.18,-62.39"/>
<text text-anchor="middle" x="223.49" y="-85" font-family="arial" font-size="10.00" fill="blue"> &#160;1. burn token with </text>
<text text-anchor="middle" x="223.49" y="-73" font-family="arial" font-size="10.00" fill="blue"> &#160;&#160;{collection: collection1, tokenId: token1, tokenURI: tokenURI_1}</text>
</g>
<!-- CollectionsBridgeRoot -->
<g id="node3" class="node">
<title>CollectionsBridgeRoot</title>
<path fill="none" stroke="black" d="M514.4,-148C514.4,-148 423.6,-148 423.6,-148 417.6,-148 411.6,-142 411.6,-136 411.6,-136 411.6,-124 411.6,-124 411.6,-118 417.6,-112 423.6,-112 423.6,-112 514.4,-112 514.4,-112 520.4,-112 526.4,-118 526.4,-124 526.4,-124 526.4,-136 526.4,-136 526.4,-142 520.4,-148 514.4,-148"/>
<text text-anchor="middle" x="469" y="-127" font-family="arial" font-size="10.00">CollectionsBridgeRoot</text>
</g>
<!-- CollectionsBridgeRoot&#45;&gt;CollectionsBridgeRoot -->
<g id="edge4" class="edge">
<title>CollectionsBridgeRoot&#45;&gt;CollectionsBridgeRoot</title>
<path fill="none" stroke="green" stroke-dasharray="5,2" d="M526.57,-138.51C537.08,-137.43 544.45,-134.59 544.45,-130 544.45,-127.06 541.43,-124.84 536.49,-123.34"/>
<polygon fill="green" stroke="green" points="537.04,-119.88 526.57,-121.49 535.76,-126.76 537.04,-119.88"/>
<text text-anchor="middle" x="640.6" y="-127" font-family="arial" font-size="10.00" fill="green"> &#160;&#160;2: unlock by transfer the token to the user</text>
</g>
<!-- CheckpointManager -->
<g id="node4" class="node">
<title>CheckpointManager</title>
<path fill="none" stroke="black" d="M509.97,-52C509.97,-52 428.03,-52 428.03,-52 422.03,-52 416.03,-46 416.03,-40 416.03,-40 416.03,-28 416.03,-28 416.03,-22 422.03,-16 428.03,-16 428.03,-16 509.97,-16 509.97,-16 515.97,-16 521.97,-22 521.97,-28 521.97,-28 521.97,-40 521.97,-40 521.97,-46 515.97,-52 509.97,-52"/>
<text text-anchor="middle" x="469" y="-31" font-family="arial" font-size="10.00">CheckpointManager</text>
</g>
<!-- CollectionsBridgeRoot&#45;&gt;CheckpointManager -->
<g id="edge3" class="edge">
<title>CollectionsBridgeRoot&#45;&gt;CheckpointManager</title>
<path fill="none" stroke="green" stroke-dasharray="5,2" d="M469,-111.76C469,-97.98 469,-78.4 469,-62.47"/>
<polygon fill="green" stroke="green" points="472.5,-62.13 469,-52.13 465.5,-62.13 472.5,-62.13"/>
<text text-anchor="middle" x="556.25" y="-85" font-family="arial" font-size="10.00" fill="green"> &#160;&#160;1: Check with the withdraw happened</text>
<text text-anchor="middle" x="556.25" y="-73" font-family="arial" font-size="10.00" fill="green"> in Polygon by using the proof</text>
</g>
<!-- User -->
<g id="node5" class="node">
<title>User</title>
<text text-anchor="middle" x="271" y="-240.4" font-family="arial" font-size="12.00">User</text>
</g>
<!-- User&#45;&gt;CollectionsBridgeChild -->
<g id="edge5" class="edge">
<title>User&#45;&gt;CollectionsBridgeChild</title>
<path fill="none" stroke="black" d="M243.98,-241.11C215.02,-237.98 168.73,-229.73 135.24,-208 115.53,-195.21 99.33,-173.94 88.55,-156.99"/>
<polygon fill="black" stroke="black" points="91.32,-154.82 83.13,-148.1 85.34,-158.46 91.32,-154.82"/>
<text text-anchor="middle" x="281.88" y="-199" font-family="arial" font-size="10.00"> &#160;&#160;&#160;Tx1: Withdraw token with </text>
<text text-anchor="middle" x="281.88" y="-187" font-family="arial" font-size="10.00"> &#160;&#160;{collection: collection1, tokenId: token1, tokenURI: tokenURI_1} </text>
</g>
<!-- User&#45;&gt;CollectionsBridgeRoot -->
<g id="edge6" class="edge">
<title>User&#45;&gt;CollectionsBridgeRoot</title>
<path fill="none" stroke="black" d="M298.05,-243.45C331.56,-242.66 388.88,-236.74 427,-208 443.41,-195.62 454.19,-174.89 460.72,-158.06"/>
<polygon fill="black" stroke="black" points="464.18,-158.78 464.24,-148.19 457.58,-156.43 464.18,-158.78"/>
<text text-anchor="middle" x="506.46" y="-193" font-family="arial" font-size="10.00"> &#160;&#160;&#160;Tx2: Withaw token proof</text>
</g>
</g>
</svg>
